<svg width="58" height="87" viewBox="0 0 58 87" fill="none" xmlns="http://www.w3.org/2000/svg">
<mask id="mask0_2043_926" style="mask-type:luminance" maskUnits="userSpaceOnUse" x="0" y="0" width="58" height="87">
<path d="M0.389648 0.301758H57.958V86.2972H0.389648V0.301758Z" fill="white"/>
</mask>
<g mask="url(#mask0_2043_926)">
<path d="M29.4593 30.1155V33.1827C29.4593 33.4225 29.3673 33.5424 29.1835 33.5424C28.9996 33.5424 28.9077 33.4225 28.9077 33.1827V30.1155C28.9077 29.8757 28.9996 29.7558 29.1835 29.7558C29.3673 29.7558 29.4593 29.8757 29.4593 30.1155ZM29.1786 5.20546C28.9948 5.20546 28.9029 5.32537 28.9029 5.5652V8.63872C28.9029 8.87223 28.9948 8.99214 29.1786 8.99214C29.3625 8.99214 29.4544 8.87223 29.4544 8.63872V5.5652C29.4544 5.33169 29.3625 5.21177 29.1786 5.20546ZM29.1786 35.8965C28.9948 35.8965 28.9029 36.0164 28.9029 36.2562V39.3361C28.9029 39.5759 28.9948 39.6958 29.1786 39.6958C29.3625 39.6958 29.4544 39.5759 29.4544 39.3361V36.2562C29.4544 36.0164 29.3625 35.8965 29.1786 35.8965ZM29.1786 11.3462C28.9948 11.3462 28.9029 11.4661 28.9029 11.7059V14.7731C28.9029 15.013 28.9948 15.1329 29.1786 15.1329C29.3625 15.1329 29.4544 15.013 29.4544 14.7731V11.7059C29.4544 11.4661 29.3625 11.3462 29.1786 11.3462ZM29.1786 23.6213C28.9948 23.6213 28.9029 23.7413 28.9029 23.9811V27.0546C28.9029 27.2944 28.9948 27.408 29.1786 27.408C29.3625 27.408 29.4544 27.2944 29.4544 27.0546V23.9811C29.4544 23.7413 29.3625 23.6213 29.1786 23.6213ZM29.1786 17.4869C28.9948 17.4869 28.9029 17.6068 28.9029 17.8467V20.9139C28.9029 21.1537 28.9948 21.2736 29.1786 21.2736C29.3625 21.2736 29.4544 21.1537 29.4544 20.9139V17.8403C29.4544 17.6005 29.3625 17.4869 29.1786 17.4869ZM32.0237 46.3603L34.0413 47.875C34.0849 47.9066 34.1284 47.9192 34.1768 47.9192C34.322 47.9192 34.4091 47.8308 34.4478 47.6541C34.4816 47.4711 34.4381 47.3386 34.3123 47.2502L32.2946 45.7355C32.135 45.6219 32.014 45.6661 31.9221 45.8744C31.8301 46.0827 31.864 46.2467 32.0237 46.3603ZM36.0783 49.3834L38.096 50.8917C38.1395 50.9233 38.1831 50.9359 38.2315 50.9359C38.3766 50.9422 38.4637 50.8539 38.5024 50.6708C38.5363 50.4941 38.4927 50.3553 38.3669 50.2669L36.3493 48.7586C36.1945 48.6387 36.0687 48.6828 35.9767 48.8911C35.8848 49.0994 35.9187 49.2635 36.0783 49.3834ZM44.1828 55.4168L46.1956 56.9315C46.2392 56.963 46.2827 56.9757 46.3311 56.9757C46.4424 56.9757 46.5198 56.9189 46.573 56.7926C46.6553 56.5907 46.6214 56.4329 46.4714 56.3193L44.4538 54.8046C44.2941 54.691 44.1683 54.7352 44.0763 54.9435C43.9844 55.1517 44.0183 55.3095 44.178 55.4294L44.1828 55.4168ZM48.2326 58.4398L50.2599 59.9482C50.2986 59.9798 50.347 59.9924 50.3954 59.9924C50.5019 59.9987 50.5793 59.9356 50.6325 59.8157C50.7148 59.6137 50.6857 59.4496 50.5309 59.336L48.5036 57.8277C48.3439 57.7078 48.2181 57.7519 48.131 57.9602C48.0391 58.1685 48.0729 58.3326 48.2326 58.4525V58.4398ZM52.2873 61.4566L54.3049 62.9649C54.3436 62.9965 54.392 63.0091 54.4404 63.0091C54.5807 63.0154 54.6726 62.9271 54.7065 62.744C54.7452 62.5673 54.7017 62.4285 54.5759 62.3401L52.5582 60.8318C52.3985 60.7119 52.2727 60.756 52.1857 60.9643C52.0937 61.1726 52.1276 61.3367 52.2873 61.4566ZM40.133 52.4001L42.1506 53.9085C42.1942 53.94 42.2377 53.9526 42.2861 53.9526C42.3926 53.9526 42.4748 53.8958 42.528 53.7759C42.6151 53.5677 42.5813 53.4036 42.4216 53.2837L40.4088 51.7753C40.2491 51.6554 40.1233 51.6996 40.0314 51.9078C39.9394 52.1161 39.9733 52.2802 40.133 52.4001ZM24.1805 47.9192C24.2289 47.9192 24.2724 47.9003 24.316 47.8687L26.3336 46.3603C26.4933 46.2404 26.5272 46.0827 26.4352 45.8744C26.3433 45.6661 26.2175 45.6156 26.0578 45.7355L24.045 47.2439C23.9192 47.3386 23.8757 47.4711 23.9144 47.6541C23.9482 47.8308 24.0402 47.9192 24.1805 47.9192ZM7.97156 59.9924C8.01994 59.9924 8.06349 59.9735 8.10704 59.9419L10.1247 58.4335C10.2844 58.3136 10.3182 58.1558 10.2263 57.9476C10.1344 57.7393 10.0086 57.6951 9.84889 57.8087L7.83124 59.3234C7.68609 59.437 7.65222 59.6011 7.73447 59.7967C7.78286 59.9293 7.86027 59.9924 7.97156 59.9924ZM3.92174 63.0154C3.97013 63.0154 4.01368 63.0028 4.05722 62.9712L6.07971 61.4566C6.23938 61.343 6.27325 61.1789 6.18616 60.9706C6.09422 60.7623 5.96842 60.7182 5.80875 60.8318L3.7911 62.3464C3.63144 62.46 3.59757 62.6241 3.6895 62.8324C3.74272 62.9523 3.8153 63.0154 3.92174 63.0154ZM12.0214 56.982C12.0698 56.9757 12.1133 56.963 12.1568 56.9315L14.1745 55.4231C14.3342 55.3032 14.368 55.1391 14.2761 54.9309C14.1842 54.7226 14.0632 54.6784 13.9035 54.7983L11.8859 56.3067C11.7359 56.4266 11.702 56.5844 11.7794 56.7863C11.8327 56.9126 11.9149 56.9757 12.0214 56.9757V56.982ZM20.1258 50.9422C20.1742 50.9422 20.2178 50.9233 20.2613 50.8917L22.279 49.3834C22.4386 49.2635 22.4725 49.0994 22.3806 48.8911C22.2886 48.6828 22.1628 48.6387 22.0032 48.7586L19.9904 50.2669C19.8646 50.3616 19.821 50.4941 19.8549 50.6708C19.8936 50.8539 19.9807 50.9422 20.1258 50.9422ZM16.0712 53.9526C16.1196 53.9526 16.168 53.94 16.2115 53.9085L18.2292 52.4001C18.3017 52.3559 18.3501 52.2865 18.3791 52.1855C18.4033 52.0845 18.3985 51.9899 18.3598 51.8952C18.3211 51.8005 18.2582 51.7437 18.1808 51.7185C18.1033 51.6932 18.0308 51.7122 17.963 51.7753L15.9454 53.2837C15.7857 53.4036 15.7518 53.5677 15.8438 53.7759C15.8922 53.8895 15.9696 53.9526 16.0712 53.9526ZM57.9725 22.3339V64.8709C57.9725 65.1486 57.8806 65.3568 57.6967 65.4957L29.4544 86.7642H29.4351C29.4061 86.7831 29.3722 86.8021 29.3432 86.8147L29.3093 86.8273C29.2222 86.8589 29.1351 86.8589 29.048 86.8273H29.0238C28.9851 86.8147 28.9512 86.7958 28.9174 86.7705C28.9174 86.7705 28.9077 86.7705 28.9029 86.7705L0.660604 65.4957C0.476741 65.3568 0.389648 65.1486 0.389648 64.8709V22.3339C0.389648 22.3339 0.389648 22.3086 0.389648 22.296C0.389648 22.2581 0.394487 22.2203 0.399325 22.1824L0.409002 22.1256C0.41868 22.0877 0.433196 22.0499 0.44771 22.012C0.45255 21.9931 0.462225 21.9741 0.471903 21.9552C0.486417 21.911 0.510611 21.8732 0.534803 21.8416L0.568672 21.7974C0.592865 21.7785 0.612219 21.7532 0.636411 21.7343L0.660604 21.7091L28.9077 0.440559C29.0916 0.301715 29.2754 0.301715 29.4593 0.440559L57.7015 21.7091C57.7064 21.7154 57.716 21.728 57.7209 21.7343C57.7451 21.7532 57.7693 21.7785 57.7886 21.8037L57.8225 21.8416C57.8515 21.8795 57.8709 21.9173 57.8902 21.9552L57.9144 22.0057C57.9289 22.0436 57.9386 22.0814 57.9483 22.1256C57.9531 22.1445 57.958 22.1635 57.958 22.1824C57.9676 22.2203 57.9676 22.2581 57.9725 22.296C57.9725 22.296 57.9725 22.3212 57.9725 22.3339ZM56.8693 23.5835L30.0834 44.0883L30.2673 44.2272C30.427 44.3471 30.4608 44.5112 30.3738 44.7194C30.3157 44.8394 30.2383 44.8962 30.1318 44.8962C30.0834 44.8962 30.0399 44.8835 29.9964 44.852L29.7254 44.65V84.9024L56.5935 64.6689L56.3274 64.4733C56.1774 64.3534 56.1435 64.1956 56.2258 63.9936C56.3177 63.798 56.4387 63.7475 56.5935 63.8611L56.8645 64.0631L56.8693 23.5835ZM2.03957 64.4733L1.77346 64.6689L28.6271 84.8961V44.65L28.3609 44.852C28.3174 44.8835 28.2738 44.8962 28.2255 44.8962C28.119 44.8962 28.0368 44.8394 27.9835 44.7194C27.8916 44.5112 27.9255 44.3471 28.0851 44.2272L28.269 44.0883L1.48799 23.5835V64.0504L1.75894 63.8485C1.91861 63.7286 2.04441 63.7728 2.13634 63.981C2.22827 64.183 2.19924 64.3534 2.03957 64.4733ZM29.4593 2.10039V2.49799C29.4593 2.73781 29.3673 2.85772 29.1835 2.85772C28.9996 2.85772 28.9077 2.73781 28.9077 2.49799V2.10039L2.03957 22.3402L28.9174 42.9082V42.397C28.9174 42.1571 29.0093 42.0372 29.1883 42.0372C29.3722 42.0372 29.4641 42.1571 29.4641 42.397V42.9082L56.3419 22.3402L29.4593 2.10039Z" fill="#34A853"/>
</g>
</svg>
