<svg width="54" height="81" viewBox="0 0 54 81" fill="none" xmlns="http://www.w3.org/2000/svg">
<mask id="mask0_2043_905" style="mask-type:luminance" maskUnits="userSpaceOnUse" x="0" y="0" width="54" height="81">
<path d="M0.189453 0.234375H53.1177V80.1648H0.189453V0.234375Z" fill="white"/>
</mask>
<g mask="url(#mask0_2043_905)">
<path d="M53.1322 20.4806V59.5906C53.1322 59.8431 53.0451 60.0387 52.8758 60.1649L26.9124 79.7168C26.835 79.7799 26.7479 79.8052 26.6608 79.8052C26.5689 79.8052 26.4866 79.7799 26.4044 79.7168L0.441055 60.1649C0.271708 60.0387 0.189453 59.8431 0.189453 59.5906V20.4806C0.189453 20.2281 0.271708 20.0388 0.441055 19.9125L26.4092 0.354356C26.4479 0.329111 26.4866 0.303868 26.5302 0.291245C26.6173 0.259689 26.7044 0.259689 26.7915 0.291245C26.835 0.303868 26.8786 0.329111 26.9173 0.354356L52.8806 19.9125L52.8951 19.9252C52.9241 19.9504 52.9483 19.9693 52.9677 20.0009C52.9774 20.0072 52.987 20.0198 52.9919 20.0325C53.0161 20.064 53.0403 20.1019 53.0596 20.1397C53.0596 20.1461 53.0645 20.1524 53.0645 20.1587C53.0838 20.2029 53.0983 20.247 53.108 20.2975C53.1128 20.3101 53.1128 20.3228 53.108 20.3354C53.1177 20.3733 53.1225 20.4111 53.1225 20.4553C53.1274 20.4616 53.1274 20.4742 53.1322 20.4806Z" fill="black"/>
<path d="M53.1322 20.4553C53.1274 20.4174 53.1274 20.3733 53.1177 20.3354C53.1177 20.3228 53.1177 20.3101 53.1177 20.2975C53.108 20.247 53.0935 20.2029 53.0741 20.1587C53.0741 20.1524 53.0693 20.1461 53.0645 20.1397C53.0499 20.1019 53.0257 20.064 53.0016 20.0325C52.9967 20.0198 52.987 20.0135 52.9774 20.0009C52.958 19.9757 52.929 19.9504 52.9048 19.9315L52.8903 19.9125L26.9173 0.354356C26.8786 0.329111 26.835 0.303868 26.7915 0.291245C26.7044 0.259689 26.6173 0.259689 26.5302 0.291245C26.4866 0.303868 26.4479 0.329111 26.4092 0.354356L0.441055 19.9125C0.271708 20.0388 0.189453 20.2281 0.189453 20.4806V59.5906C0.189453 59.8431 0.271708 60.0387 0.441055 60.1649L26.4044 79.7168C26.4866 79.7799 26.5689 79.8052 26.6608 79.8052C26.7479 79.8052 26.835 79.7799 26.9124 79.7168L52.8758 60.1649C53.0451 60.0387 53.1322 59.8431 53.1322 59.5906V20.4806C53.1322 20.4742 53.1322 20.4679 53.1322 20.4553ZM51.6129 20.4742L39.7538 29.171L28.0446 2.72734L51.6129 20.4742ZM26.6608 2.24769L38.6796 29.4045H14.642L26.6608 2.24769ZM25.277 2.72734L13.5776 29.171L1.60713 20.5563L25.277 2.72734ZM1.2007 21.7743L13.0695 30.3133L1.2007 57.1293V21.7743ZM13.7663 31.3799L25.7851 58.543H1.74745L13.7663 31.3799ZM26.1576 78.0065L2.06195 59.862H26.1528L26.1576 78.0065ZM26.6608 57.8866L14.642 30.7235H38.6845L26.6608 57.8866ZM27.164 78.0128V59.862H51.2645L27.164 78.0128ZM27.5366 58.543L39.5602 31.3925L51.579 58.543H27.5366ZM52.121 57.1293L40.2473 30.3007L52.121 21.6102V57.1293Z" fill="#5991FF"/>
</g>
</svg>
