<svg width="64" height="72" viewBox="0 0 64 72" fill="none" xmlns="http://www.w3.org/2000/svg">
<mask id="mask0_2043_916" style="mask-type:luminance" maskUnits="userSpaceOnUse" x="0" y="0" width="64" height="72">
<path d="M0.447266 0.253418H63.5895V71.7143H0.447266V0.253418Z" fill="white"/>
</mask>
<g mask="url(#mask0_2043_916)">
<path d="M63.9621 71.7144C63.9669 71.7018 63.9669 71.6829 63.9718 71.6702C63.9766 71.6324 63.9815 71.6008 63.9815 71.5629V71.5251C63.9815 71.4746 63.9766 71.4304 63.9669 71.3799C63.9573 71.3357 63.9427 71.2853 63.9234 71.2411V71.2285L32.6426 0.556426C32.599 0.474382 32.5458 0.398648 32.4781 0.348159L32.4587 0.335537C32.4297 0.316603 32.4006 0.297669 32.3716 0.285048H32.3474C32.27 0.259802 32.1926 0.259802 32.1152 0.285048H32.0861C32.0571 0.297669 32.0329 0.310292 32.0087 0.329226L31.9797 0.348159C31.9507 0.373404 31.9216 0.404959 31.8974 0.430204L31.8829 0.442826C31.8587 0.480692 31.8394 0.51856 31.82 0.556426L31.8103 0.569049L0.515004 71.2221C0.510166 71.2221 0.510166 71.2285 0.515004 71.2285C0.471458 71.3231 0.452104 71.4178 0.447266 71.5251V71.5503C0.452104 71.5945 0.452105 71.6387 0.461781 71.6765V71.7081C0.471459 71.7586 0.485975 71.8028 0.505327 71.8533C0.524683 71.8974 0.548874 71.9353 0.577905 71.9732L0.582743 71.9858C0.606937 72.011 0.631128 72.03 0.655321 72.0552C0.664998 72.0552 0.674674 72.0741 0.684352 72.0805C0.708544 72.0994 0.727898 72.112 0.75209 72.1183C0.766606 72.1183 0.785959 72.1373 0.800475 72.1436C0.829506 72.1499 0.858537 72.1562 0.88273 72.1625H63.4976C63.517 72.1562 63.5412 72.1562 63.5653 72.1499C63.5847 72.1499 63.6041 72.1499 63.6186 72.1499C63.6476 72.1373 63.6718 72.1246 63.696 72.1057C63.7105 72.0994 63.725 72.0931 63.7347 72.0868C63.7637 72.0615 63.7879 72.0426 63.8073 72.0173C63.8169 72.0047 63.8266 71.9984 63.8363 71.9858C63.8702 71.9479 63.8944 71.9037 63.9137 71.8533C63.9379 71.8091 63.9524 71.7649 63.9621 71.7144ZM31.7281 47.568L2.25202 69.8084L31.7281 3.2071V47.568ZM32.2119 48.6599L61.6977 70.9066H2.73103L32.2119 48.6599ZM32.6958 47.568V3.21341L62.1767 69.8084L32.6958 47.568Z" fill="#EA4335"/>
</g>
</svg>
