<svg width="50" height="76" viewBox="0 0 50 76" fill="none" xmlns="http://www.w3.org/2000/svg">
<mask id="mask0_2043_936" style="mask-type:luminance" maskUnits="userSpaceOnUse" x="0" y="0" width="50" height="76">
<path d="M0.178711 0.84668H49.391V75.7346H0.178711V0.84668Z" fill="white"/>
</mask>
<g mask="url(#mask0_2043_936)">
<path d="M0.357475 19.7863H48.752C48.9359 19.7863 49.0714 19.8872 49.1633 20.0955C49.2552 20.3038 49.2552 20.5057 49.1633 20.714L24.966 75.381C24.9225 75.4757 24.8644 75.5514 24.7918 75.6082C24.7193 75.665 24.6418 75.6903 24.5548 75.6903C24.4725 75.6903 24.3902 75.665 24.3177 75.6082C24.2451 75.5514 24.187 75.4757 24.1435 75.381L-0.0537967 20.714C-0.097344 20.6193 -0.116697 20.5184 -0.116697 20.4048C-0.116697 20.2975 -0.097344 20.1902 -0.0537967 20.0955C-0.0102506 20.0008 0.0478125 19.9251 0.120389 19.8683C0.192967 19.8115 0.270381 19.7863 0.357475 19.7863ZM47.9247 21.0232H1.18002L24.5548 73.8348L47.9247 21.0232ZM24.5548 1.08008C24.637 1.08008 24.7193 1.10532 24.7918 1.16212L49.1488 19.5086C49.3085 19.6222 49.3859 19.8052 49.3859 20.045V56.7316C49.3859 56.9651 49.3085 57.1482 49.1488 57.2681L24.7918 75.6082C24.6322 75.7281 24.4725 75.7281 24.3177 75.6082L-0.0392812 57.2681C-0.198951 57.1482 -0.276367 56.9651 -0.276367 56.7316V20.045C-0.276367 19.8052 -0.198951 19.6222 -0.0392812 19.5086L24.3177 1.16212C24.3902 1.10532 24.4677 1.08008 24.5548 1.08008ZM48.4375 20.4048L24.5548 2.41804L0.671977 20.4048V56.3719L24.5548 74.3586L48.4375 56.3719V20.4048Z" fill="#E8E627"/>
</g>
</svg>
