<svg width="58" height="69" viewBox="0 0 58 69" fill="none" xmlns="http://www.w3.org/2000/svg">
<mask id="mask0_2043_899" style="mask-type:luminance" maskUnits="userSpaceOnUse" x="0" y="0" width="58" height="69">
<path d="M0.402344 0.5H57.0417V68.3257H0.402344V0.5Z" fill="white"/>
</mask>
<g mask="url(#mask0_2043_899)">
<path d="M57.2014 38.4111C57.2014 38.512 57.182 38.6067 57.1385 38.6951L45.71 64.2741C45.6712 64.3624 45.618 64.4319 45.5551 64.476L40.257 68.4773C40.1892 68.5278 40.1167 68.553 40.0392 68.553H17.4629C17.3758 68.553 17.2983 68.5215 17.2209 68.4584L12.6679 64.4508C12.6195 64.4066 12.576 64.3561 12.5421 64.2867L0.465244 39.1937C0.421697 39.1053 0.402344 39.0043 0.402344 38.897C0.402344 38.8844 0.402344 38.8718 0.402344 38.8592L0.866839 29.0454C0.866839 28.957 0.886193 28.8686 0.924901 28.7929L11.9808 4.43194C12.0244 4.34359 12.0776 4.27417 12.1454 4.22368L17.2596 0.588465C17.3225 0.544287 17.3903 0.519043 17.4629 0.519043H40.0441C40.1167 0.519043 40.1844 0.544287 40.2473 0.588465L46.1019 4.70963C46.1744 4.76012 46.2277 4.82955 46.2712 4.92421L57.1385 29.159C57.182 29.2473 57.2014 29.342 57.2014 29.443V38.4111Z" fill="black"/>
<path d="M57.2014 29.443C57.2014 29.342 57.182 29.2473 57.1385 29.1589L46.2712 4.9179C46.2277 4.82955 46.1744 4.76012 46.1019 4.70963L40.2473 0.588465C40.1844 0.544287 40.1167 0.519043 40.0441 0.519043H17.4629C17.3903 0.519043 17.3225 0.544287 17.2596 0.588465L12.1454 4.22368C12.0776 4.27417 12.0244 4.34359 11.9808 4.43194L0.924901 28.7929C0.891032 28.8686 0.871677 28.957 0.866839 29.0453L0.402344 38.8592C0.402344 38.8718 0.402344 38.8844 0.402344 38.897C0.402344 39.0043 0.421697 39.1053 0.465244 39.1936L12.5469 64.2804C12.576 64.3498 12.6195 64.4066 12.6728 64.4445L17.2258 68.4457C17.2983 68.5088 17.3758 68.5404 17.4677 68.5404H40.0441C40.1215 68.5404 40.1941 68.5152 40.2618 68.4647L45.5551 64.4697C45.6229 64.4192 45.6712 64.3498 45.71 64.2678L57.1433 38.6888C57.182 38.6004 57.2014 38.5057 57.2014 38.4048V29.443ZM17.787 1.64874H39.7344L44.8148 21.1943L28.7075 33.8797L13.1469 21.9138L17.787 1.64874ZM1.72325 29.2473L12.6679 5.13879L16.7516 2.23567L12.247 21.8885L1.34101 37.3445L1.72325 29.2473ZM1.37488 38.9601L12.7163 22.892L28.272 34.8579V57.1425L13.1034 63.3148L1.37488 38.9601ZM39.928 67.417H17.5983L13.9017 64.1731L28.7123 58.1523L44.2536 64.1542L39.928 67.417ZM45.1342 63.3148L29.1381 57.1362V34.8516L45.2455 22.1725L56.2337 38.4805L45.1342 63.3148ZM56.3353 36.9153L45.7196 21.1564L40.8086 2.26091L45.5841 5.62475L56.3353 29.5944V36.9153Z" fill="#F9A531"/>
</g>
</svg>
