<svg width="23" height="15" viewBox="0 0 23 15" fill="none" xmlns="http://www.w3.org/2000/svg">
<path d="M0.12793 14.2398H2.81813V6.18675C3.65035 4.94977 5.54704 3.61181 7.48243 3.61181C9.7662 3.61181 10.0952 5.22746 10.0952 8.23156V14.2398H12.7854L12.8241 7.52471C12.8241 6.91884 12.7854 6.36346 12.7467 5.83333C13.7338 4.69733 15.4176 3.61181 17.1401 3.61181C19.4432 3.61181 19.7722 5.22746 19.7722 8.23156V14.2398H22.443L22.4817 6.8936C22.443 1.99616 20.4496 0.658203 17.9916 0.658203C15.4563 0.658203 13.5596 1.79421 12.1854 3.08168C11.3919 1.23883 9.94039 0.658203 8.33401 0.658203C5.79864 0.658203 3.97937 1.8447 2.81813 3.03119V0.885404H0.12793V14.2398Z" fill="white"/>
</svg>
