<svg width="14" height="15" viewBox="0 0 14 15" fill="none" xmlns="http://www.w3.org/2000/svg">
<path d="M4.77865 14.4674C7.35273 14.4674 9.44295 13.6344 11.3203 12.5741V14.2402H13.9911V7.44947C13.9718 2.37532 11.5138 0.658691 7.19789 0.658691C5.0109 0.658691 2.97873 1.13834 0.888506 2.04714L1.8562 4.57159C4.0432 3.71328 5.70764 3.53657 7.06242 3.53657C8.47526 3.53657 11.3203 3.78901 11.3203 6.59115C9.84939 5.96004 8.08818 5.53088 6.24955 5.53088C2.94002 5.53088 0.0175781 6.69213 0.0175781 10.1759C0.0175781 13.2305 1.74008 14.4674 4.77865 14.4674ZM5.53345 11.8168C3.83031 11.8168 2.70778 11.7158 2.70778 10.1001C2.70778 8.58547 4.17868 8.03009 6.50115 8.03009C8.61073 8.03009 10.1397 8.45925 11.3203 8.96414V10.1506C9.63649 11.0594 7.19789 11.8168 5.53345 11.8168Z" fill="white"/>
</svg>
