<svg width="15" height="20" viewBox="0 0 15 20" fill="none" xmlns="http://www.w3.org/2000/svg">
<path d="M8.08711 19.945C12.0934 19.945 14.8416 17.4711 14.8416 11.9677V0.885404H12.1514V3.05643C11.087 1.54176 9.28705 0.658203 6.75168 0.658203C3.13249 0.658203 0.539062 2.65252 0.539062 7.42373C0.539062 12.1949 3.13249 14.2145 6.75168 14.2145C9.28705 14.2145 11.0676 13.3562 12.1514 11.791C12.0353 15.3253 10.816 17.0419 7.44843 17.0419C5.16466 17.0419 2.86154 16.3855 1.64224 16.0826V18.8847C2.64864 19.2129 5.1066 19.945 8.08711 19.945ZM7.70003 11.3114C4.70016 11.3114 3.22926 10.1501 3.22926 7.42373C3.22926 4.72257 4.70016 3.53608 7.70003 3.53608C10.6805 3.53608 12.1514 4.72257 12.1514 7.42373C12.1514 10.1501 10.6805 11.3114 7.70003 11.3114Z" fill="white"/>
</svg>
