<svg width="16" height="20" viewBox="0 0 16 20" fill="none" xmlns="http://www.w3.org/2000/svg">
<path d="M8.38984 19.51C12.3961 19.51 15.1444 17.036 15.1444 11.5327V0.450345H12.4542V2.62137C11.3897 1.1067 9.58979 0.223145 7.05442 0.223145C3.43523 0.223145 0.841797 2.21746 0.841797 6.98868C0.841797 11.7599 3.43523 13.7795 7.05442 13.7795C9.58979 13.7795 11.3703 12.9211 12.4542 11.356C12.338 14.8902 11.1187 16.6068 7.75116 16.6068C5.46739 16.6068 3.16427 15.9505 1.94497 15.6475V18.4497C2.95138 18.7779 5.40933 19.51 8.38984 19.51ZM8.00276 10.8763C5.0029 10.8763 3.532 9.71508 3.532 6.98868C3.532 4.28751 5.0029 3.10102 8.00276 3.10102C10.9833 3.10102 12.4542 4.28751 12.4542 6.98868C12.4542 9.71508 10.9833 10.8763 8.00276 10.8763Z" fill="white"/>
</svg>
