<svg width="23" height="14" viewBox="0 0 23 14" fill="none" xmlns="http://www.w3.org/2000/svg">
<path d="M0.0488281 13.7344H2.73903V5.68138C3.57125 4.4444 5.46794 3.10644 7.40333 3.10644C9.6871 3.10644 10.0161 4.72209 10.0161 7.72619V13.7344H12.7063L12.745 7.01934C12.745 6.41347 12.7063 5.85809 12.6676 5.32796C13.6547 4.19196 15.3385 3.10644 17.061 3.10644C19.3641 3.10644 19.6931 4.72209 19.6931 7.72619V13.7344H22.3639L22.4026 6.38823C22.3639 1.49079 20.3705 0.152832 17.9125 0.152832C15.3772 0.152832 13.4805 1.28884 12.1063 2.57631C11.3128 0.733456 9.86128 0.152832 8.25491 0.152832C5.71954 0.152832 3.90027 1.33932 2.73903 2.52582V0.380033H0.0488281V13.7344Z" fill="white"/>
</svg>
