<svg width="15" height="15" viewBox="0 0 15 15" fill="none" xmlns="http://www.w3.org/2000/svg">
<path d="M5.60775 14.467C8.18183 14.467 10.2721 13.6339 12.1494 12.5736V14.2398H14.8202V7.44898C14.8009 2.37483 12.3429 0.658203 8.027 0.658203C5.84 0.658203 3.80783 1.13785 1.71761 2.04665L2.68531 4.5711C4.8723 3.71279 6.53674 3.53608 7.89152 3.53608C9.30436 3.53608 12.1494 3.78852 12.1494 6.59067C10.6785 5.95955 8.91728 5.5304 7.07865 5.5304C3.76913 5.5304 0.84668 6.69164 0.84668 10.1754C0.84668 13.23 2.56918 14.467 5.60775 14.467ZM6.36256 11.8163C4.65941 11.8163 3.53688 11.7153 3.53688 10.0997C3.53688 8.58498 5.00778 8.0296 7.33025 8.0296C9.43983 8.0296 10.9688 8.45876 12.1494 8.96365V10.1501C10.4656 11.0589 8.027 11.8163 6.36256 11.8163Z" fill="white"/>
</svg>
